<svg xmlns="http://www.w3.org/2000/svg" viewBox="0 0 180.5 187.31"><defs><style>.cls-1{opacity:0.4;}.cls-2{fill:none;stroke:#000;stroke-linejoin:round;stroke-width:10px;}</style></defs><title>funding</title><g id="Layer_2" data-name="Layer 2"><g id="Layer_1-2" data-name="Layer 1"><path class="cls-1" d="M40,125H0V80a5,5,0,0,1,5-5H35a5,5,0,0,1,5,5Z"/><path d="M90,60V45a5,5,0,0,0-5-5H55a5,5,0,0,0-5,5V60Z"/><rect class="cls-1" x="50" y="65" width="40" height="60"/><rect class="cls-1" x="100" y="65" width="40" height="60"/><path d="M140,60V5a5,5,0,0,0-5-5H105a5,5,0,0,0-5,5V60Z"/><path class="cls-2" d="M150.5,29.5h15a10,10,0,0,1,10,10v85a40,40,0,0,1-40,40h-80"/><path class="cls-2" d="M68,184.5c-6.33-9.3-13.1-15.83-20-20q13.56-8.5,20-20"/></g></g></svg>