<svg xmlns="http://www.w3.org/2000/svg" viewBox="0 0 196.41 174"><defs><style>.cls-1{opacity:0.4;}.cls-2{fill:none;stroke:#000;stroke-miterlimit:10;stroke-width:10px;}</style></defs><title>network_1</title><g id="Layer_2" data-name="Layer 2"><g id="Layer_1-2" data-name="Layer 1"><path d="M3.75,94.59A6.54,6.54,0,0,0,2,95a3,3,0,0,0-1.55.89,2.07,2.07,0,0,0-.37,1.7,9.43,9.43,0,0,0,3.41,5.61c2.48,2.11,6.15,3.18,10.91,3.18a18.86,18.86,0,0,0,6-.85,10,10,0,0,0,3.78-2.31,9.81,9.81,0,0,0,2.44-3.43,11.14,11.14,0,0,0,.83-4.33c0-3.23-.85-5.73-2.52-7.41S20.75,85,17,84.24l-5-1a9,9,0,0,1-4.26-1.86,5.05,5.05,0,0,1-1.4-3.84,4.92,4.92,0,0,1,.37-1.88A3.83,3.83,0,0,1,8,74a6.82,6.82,0,0,1,2.25-1,12.48,12.48,0,0,1,3.39-.38A7.9,7.9,0,0,1,19,74.16a6.73,6.73,0,0,1,1.82,2.76,2,2,0,0,0,2.06,1.32c1.64-.29,3.32-.88,3.57-1.26.39-.58.27-1.11-.34-2.64a9.62,9.62,0,0,0-2.23-3.41,11.34,11.34,0,0,0-4-2.39,19,19,0,0,0-6.37-.92,20.39,20.39,0,0,0-5.52.7,11,11,0,0,0-3.94,1.83,9.16,9.16,0,0,0-2.67,3.22,10,10,0,0,0-1,4.47,12.49,12.49,0,0,0,.71,4.44,8.43,8.43,0,0,0,2,3.06,9.53,9.53,0,0,0,3.09,2.25A26.2,26.2,0,0,0,11,89l4.74.92a7.32,7.32,0,0,1,4.37,2.18A5.24,5.24,0,0,1,21.4,95.4,6.78,6.78,0,0,1,21,97.68,4.61,4.61,0,0,1,19.7,99.6a6.29,6.29,0,0,1-2.25,1.23,10.51,10.51,0,0,1-3.23.44c-2.56,0-4.49-.13-6.17-1.84a5.55,5.55,0,0,1-1.37-2.57,3.86,3.86,0,0,0-.89-1.77h0A2.59,2.59,0,0,0,3.75,94.59Z"/><path d="M10.56,110V64a2,2,0,0,1,2-2h2.48a2,2,0,0,1,2,2v46a2,2,0,0,1-2,2H12.58A2,2,0,0,1,10.56,110Z"/><circle class="cls-1" cx="181.41" cy="87" r="15"/><circle class="cls-1" cx="145.41" cy="159" r="15"/><circle class="cls-1" cx="145.41" cy="15" r="15"/><circle class="cls-2" cx="97.41" cy="87" r="25"/><line class="cls-2" x1="72.41" y1="87" x2="36.49" y2="87"/><path d="M166.41,87a14.8,14.8,0,0,1,.87-5H121.41V92h45.87A14.8,14.8,0,0,1,166.41,87Z"/><path d="M141.63,144.5l-22.87-39.62-8.66,5,23.23,40.25A15,15,0,0,1,141.63,144.5Z"/><path d="M133.67,24.33,110.12,65.12l8.66,5,23.37-40.48A15,15,0,0,1,133.67,24.33Z"/></g></g></svg>