<svg xmlns="http://www.w3.org/2000/svg" viewBox="0 0 170 170"><defs><style>.cls-1{fill:none;stroke:#0e0e54;stroke-miterlimit:10;stroke-width:10px;}</style></defs><title>ssflower2</title><g id="Layer_2" data-name="Layer 2"><g id="Layer_1-2" data-name="Layer 1"><path class="cls-1" d="M69.11,123.37a16.67,16.67,0,0,0,31.78,0,16.67,16.67,0,0,0,22.48-22.48,16.67,16.67,0,0,0,0-31.78,16.67,16.67,0,0,0-22.48-22.48,16.67,16.67,0,0,0-31.78,0A16.67,16.67,0,0,0,46.63,69.11a16.67,16.67,0,0,0,0,31.78,16.67,16.67,0,0,0,22.48,22.48Z"/><path class="cls-1" d="M59.57,146.39a26.68,26.68,0,0,0,50.86,0,26.67,26.67,0,0,0,35.95-36,26.68,26.68,0,0,0,0-50.86,26.67,26.67,0,0,0-35.95-36,26.68,26.68,0,0,0-50.86,0,26.68,26.68,0,0,0-36,36,26.68,26.68,0,0,0,0,50.86,26.68,26.68,0,0,0,36,36Z"/><circle class="cls-1" cx="85" cy="85" r="20"/></g></g></svg>