<svg xmlns="http://www.w3.org/2000/svg" viewBox="0 0 184 184"><defs><style>.cls-1{fill:none;stroke:#65aeea;stroke-miterlimit:10;stroke-width:4px;}</style></defs><title>ssflower_thin</title><g id="Layer_2" data-name="Layer 2"><g id="Layer_1-2" data-name="Layer 1"><path class="cls-1" d="M120.33,22.83a30,30,0,0,0-57.21.23,30,30,0,0,1,16,31.09"/><path class="cls-1" d="M63.67,161.17a30,30,0,0,0,57.21-.23,30,30,0,0,1-16-31.09"/><path class="cls-1" d="M63.12,23.06A30,30,0,0,0,22.83,63.67a30,30,0,0,1,33.26,10.7"/><path class="cls-1" d="M120.88,160.94a30,30,0,0,0,40.29-40.61,30,30,0,0,1-33.27-10.7"/><path class="cls-1" d="M22.83,63.67a30,30,0,0,0,.23,57.21,30,30,0,0,1,31.09-16"/><path class="cls-1" d="M161.17,120.33a30,30,0,0,0-.23-57.21,30,30,0,0,1-31.09,16"/><path class="cls-1" d="M23.06,120.88a30,30,0,0,0,40.61,40.29,30,30,0,0,1,10.7-33.27"/><path class="cls-1" d="M160.94,63.12a30,30,0,0,0-40.61-40.29,30,30,0,0,1-10.7,33.26"/><circle class="cls-1" cx="92" cy="92" r="40"/></g></g></svg>