<svg xmlns="http://www.w3.org/2000/svg" viewBox="0 0 190 190"><defs><style>.cls-1{fill:none;stroke:#24cfc1;stroke-miterlimit:10;stroke-width:10px;}</style></defs><title>ssflower</title><g id="Layer_2" data-name="Layer 2"><g id="Layer_1-2" data-name="Layer 1"><path class="cls-1" d="M123.6,25.94a30,30,0,0,0-57.2,0A30,30,0,0,1,82.23,57.09"/><path class="cls-1" d="M66.4,164.06a30,30,0,0,0,57.2,0,30,30,0,0,1-15.83-31.15"/><path class="cls-1" d="M66.4,25.94A30,30,0,0,0,25.94,66.4,30,30,0,0,1,59.17,77.23"/><path class="cls-1" d="M123.6,164.06a30,30,0,0,0,40.46-40.46,30,30,0,0,1-33.23-10.83"/><path class="cls-1" d="M25.94,66.4a30,30,0,0,0,0,57.2,30,30,0,0,1,31.15-15.83"/><path class="cls-1" d="M164.06,123.6a30,30,0,0,0,0-57.2,30,30,0,0,1-31.15,15.83"/><path class="cls-1" d="M25.94,123.6A30,30,0,0,0,66.4,164.06a30,30,0,0,1,10.83-33.23"/><path class="cls-1" d="M164.06,66.4A30,30,0,0,0,123.6,25.94a30,30,0,0,1-10.83,33.23"/><circle class="cls-1" cx="95" cy="95" r="40"/></g></g></svg>