<svg xmlns="http://www.w3.org/2000/svg" viewBox="0 0 181.4 180"><defs><style>.cls-1{opacity:0.4;}</style></defs><title>transparency</title><g id="Layer_2" data-name="Layer 2"><g id="Layer_1-2" data-name="Layer 1"><path d="M3.75,32.59A6.54,6.54,0,0,0,2,33a3,3,0,0,0-1.55.89,2.07,2.07,0,0,0-.37,1.7A9.43,9.43,0,0,0,3.46,41.2c2.48,2.11,6.15,3.18,10.91,3.18a18.86,18.86,0,0,0,6-.85,10,10,0,0,0,3.78-2.31,9.81,9.81,0,0,0,2.44-3.43,11.14,11.14,0,0,0,.83-4.33c0-3.23-.85-5.73-2.52-7.41S20.75,23,17,22.24l-5-1a9,9,0,0,1-4.26-1.86,5.05,5.05,0,0,1-1.4-3.84,4.92,4.92,0,0,1,.37-1.88A3.83,3.83,0,0,1,8,12a6.82,6.82,0,0,1,2.25-1,12.48,12.48,0,0,1,3.39-.38A7.9,7.9,0,0,1,19,12.16a6.73,6.73,0,0,1,1.82,2.76,2,2,0,0,0,2.06,1.32c1.64-.29,3.32-.88,3.57-1.26.39-.58.27-1.11-.34-2.64a9.62,9.62,0,0,0-2.23-3.41,11.34,11.34,0,0,0-4-2.39,19,19,0,0,0-6.37-.92A20.39,20.39,0,0,0,8,6.32,11,11,0,0,0,4.05,8.15a9.16,9.16,0,0,0-2.67,3.22,10,10,0,0,0-1,4.47,12.49,12.49,0,0,0,.71,4.44,8.43,8.43,0,0,0,2,3.06,9.53,9.53,0,0,0,3.09,2.25A26.2,26.2,0,0,0,11,27l4.74.92a7.32,7.32,0,0,1,4.37,2.18A5.24,5.24,0,0,1,21.4,33.4,6.78,6.78,0,0,1,21,35.68,4.61,4.61,0,0,1,19.7,37.6a6.29,6.29,0,0,1-2.25,1.23,10.51,10.51,0,0,1-3.23.44c-2.56,0-4.49-.13-6.17-1.84a5.55,5.55,0,0,1-1.37-2.57,3.86,3.86,0,0,0-.89-1.77h0A2.59,2.59,0,0,0,3.75,32.59Z"/><path d="M10.56,48V2a2,2,0,0,1,2-2h2.48a2,2,0,0,1,2,2V48a2,2,0,0,1-2,2H12.58A2,2,0,0,1,10.56,48Z"/><path d="M3.75,97.59A6.54,6.54,0,0,0,2,98a3,3,0,0,0-1.55.89,2.07,2.07,0,0,0-.37,1.7,9.43,9.43,0,0,0,3.41,5.61c2.48,2.11,6.15,3.18,10.91,3.18a18.86,18.86,0,0,0,6-.85,10,10,0,0,0,3.78-2.31,9.81,9.81,0,0,0,2.44-3.43,11.14,11.14,0,0,0,.83-4.33c0-3.23-.85-5.73-2.52-7.41S20.75,88,17,87.24l-5-1a9,9,0,0,1-4.26-1.86,5.05,5.05,0,0,1-1.4-3.84,4.92,4.92,0,0,1,.37-1.88A3.83,3.83,0,0,1,8,77a6.82,6.82,0,0,1,2.25-1,12.48,12.48,0,0,1,3.39-.38A7.9,7.9,0,0,1,19,77.16a6.73,6.73,0,0,1,1.82,2.76,2,2,0,0,0,2.06,1.32c1.64-.29,3.32-.88,3.57-1.26.39-.58.27-1.11-.34-2.64a9.62,9.62,0,0,0-2.23-3.41,11.34,11.34,0,0,0-4-2.39,19,19,0,0,0-6.37-.92,20.39,20.39,0,0,0-5.52.7,11,11,0,0,0-3.94,1.83,9.16,9.16,0,0,0-2.67,3.22,10,10,0,0,0-1,4.47,12.49,12.49,0,0,0,.71,4.44,8.43,8.43,0,0,0,2,3.06,9.53,9.53,0,0,0,3.09,2.25A26.2,26.2,0,0,0,11,92l4.74.92a7.32,7.32,0,0,1,4.37,2.18A5.24,5.24,0,0,1,21.4,98.4a6.78,6.78,0,0,1-.38,2.28,4.61,4.61,0,0,1-1.32,1.92,6.29,6.29,0,0,1-2.25,1.23,10.51,10.51,0,0,1-3.23.44c-2.56,0-4.49-.13-6.17-1.84a5.55,5.55,0,0,1-1.37-2.57,3.86,3.86,0,0,0-.89-1.77h0A2.59,2.59,0,0,0,3.75,97.59Z"/><path d="M10.56,113V67a2,2,0,0,1,2-2h2.48a2,2,0,0,1,2,2v46a2,2,0,0,1-2,2H12.58A2,2,0,0,1,10.56,113Z"/><path d="M3.75,162.59A6.54,6.54,0,0,0,2,163a3,3,0,0,0-1.55.89,2.07,2.07,0,0,0-.37,1.7,9.43,9.43,0,0,0,3.41,5.61c2.48,2.11,6.15,3.18,10.91,3.18a18.86,18.86,0,0,0,6-.85,10,10,0,0,0,3.78-2.31,9.81,9.81,0,0,0,2.44-3.43,11.14,11.14,0,0,0,.83-4.33c0-3.23-.85-5.73-2.52-7.41s-4.14-3-7.92-3.81l-5-1a9,9,0,0,1-4.26-1.86,5.05,5.05,0,0,1-1.4-3.84,4.92,4.92,0,0,1,.37-1.88A3.83,3.83,0,0,1,8,142a6.82,6.82,0,0,1,2.25-1,12.48,12.48,0,0,1,3.39-.38A7.9,7.9,0,0,1,19,142.16a6.73,6.73,0,0,1,1.82,2.76,2,2,0,0,0,2.06,1.32c1.64-.29,3.32-.88,3.57-1.26.39-.58.27-1.11-.34-2.64a9.62,9.62,0,0,0-2.23-3.41,11.34,11.34,0,0,0-4-2.39,19,19,0,0,0-6.37-.92,20.39,20.39,0,0,0-5.52.7,11,11,0,0,0-3.94,1.83,9.16,9.16,0,0,0-2.67,3.22,10,10,0,0,0-1,4.47,12.49,12.49,0,0,0,.71,4.44,8.43,8.43,0,0,0,2,3.06,9.53,9.53,0,0,0,3.09,2.25A26.2,26.2,0,0,0,11,157l4.74.92a7.32,7.32,0,0,1,4.37,2.18,5.24,5.24,0,0,1,1.25,3.35,6.78,6.78,0,0,1-.38,2.28,4.61,4.61,0,0,1-1.32,1.92,6.29,6.29,0,0,1-2.25,1.23,10.51,10.51,0,0,1-3.23.44c-2.56,0-4.49-.13-6.17-1.84a5.55,5.55,0,0,1-1.37-2.57,3.86,3.86,0,0,0-.89-1.77h0A2.59,2.59,0,0,0,3.75,162.59Z"/><path d="M10.56,178V132a2,2,0,0,1,2-2h2.48a2,2,0,0,1,2,2v46a2,2,0,0,1-2,2H12.58A2,2,0,0,1,10.56,178Z"/><rect x="51.84" y="7.5" width="33.55" height="10" rx="2"/><rect class="cls-1" x="51.84" y="22.5" width="85.94" height="20" rx="2"/><rect x="51.84" y="72.5" width="60.57" height="10" rx="2"/><rect class="cls-1" x="51.84" y="87.5" width="129.56" height="20" rx="2"/><rect x="51.84" y="137.5" width="81.43" height="10" rx="2"/><rect class="cls-1" x="51.84" y="152.5" width="98.52" height="20" rx="2"/></g></g></svg>